<svg width="268" height="265" viewBox="0 0 268 265" fill="none" xmlns="http://www.w3.org/2000/svg">
<path d="M20.0641 85.3899L33.8529 77.8142C39.9295 88.8745 45.7233 99.7901 51.9649 110.443C53.1049 112.389 56.1032 114.501 58.1878 114.445C81.5211 113.822 96.6876 131.278 92.2151 154.232C91.4575 158.12 90.4881 162.2 88.5396 165.568C85.6811 170.509 86.6585 174.318 89.2929 178.974C100.547 198.867 111.412 218.981 122.418 239.015C123.576 241.122 124.734 243.229 126.107 245.729L112.319 253.304C111.173 251.218 110.037 249.15 108.901 247.083C97.4669 226.272 85.9471 205.507 74.6786 184.606C72.6855 180.909 70.3392 179.302 66.1047 178.674C50.8277 176.407 37.9726 170.289 32.7045 154.252C29.5099 144.527 30.9682 135.212 37.238 127.195C40.1284 123.499 39.7608 120.891 37.6499 117.225C31.6945 106.882 26.0811 96.3416 20.0641 85.3899V85.3899ZM48.7487 152.605C52.8619 160.022 61.9648 162.673 69.3033 158.59C76.5316 154.569 79.2226 145.119 75.1981 137.89C71.1505 130.619 61.7588 127.939 54.5024 131.984C47.1237 136.097 44.6033 145.13 48.7486 152.605L48.7487 152.605Z" fill="white" fill-opacity="0.1"/>
<path d="M172.759 219.89C167.136 209.656 161.504 199.643 156.126 189.494C154.116 185.701 152.265 183.746 147.111 184.121C134.232 185.059 124.21 179.232 118.205 167.761C112.343 156.562 113.138 145.286 120.851 135.209C123.584 131.638 123.126 129.35 121.215 125.918C108.788 103.603 96.5516 81.1834 84.2528 58.7979L80.6352 52.2134L94.3192 44.6952L137.527 123.34C153.19 121.19 165.318 125.806 172.717 139.714C178.558 150.695 177.923 161.786 170.44 171.661C167.374 175.707 167.834 178.344 170.024 182.151C175.66 191.949 180.976 201.931 186.649 212.258L172.759 219.89V219.89ZM132.376 160.819C136.478 168.21 145.633 170.876 152.928 166.803C160.21 162.737 162.855 153.425 158.8 146.125C154.688 138.721 145.738 136.219 138.23 140.375C130.708 144.538 128.201 153.295 132.376 160.819L132.376 160.819Z" fill="white" fill-opacity="0.1"/>
<path d="M141.228 18.8266C143.01 17.7123 144.25 16.8709 145.55 16.1374C148.418 14.5193 151.317 12.9555 154.967 10.9503C160.851 21.6602 166.672 31.8078 172.019 42.199C174.28 46.5919 176.611 48.4335 182.065 48.1822C194.64 47.6025 204.437 53.4441 210.361 64.5864C216.294 75.7477 215.522 86.9984 207.97 97.1673C205.418 100.604 205.306 102.841 207.319 106.44C219.569 128.331 231.564 150.366 243.644 172.353L247.301 179.009L233.424 186.633C232.334 184.649 231.205 182.594 230.076 180.539C217.889 158.358 205.636 136.212 193.584 113.957C191.699 110.476 189.971 108.988 185.521 109.304C172.392 110.234 162.202 104.72 155.981 92.9333C149.893 81.3994 151.021 70.1177 158.851 59.8525C161.196 56.7786 161.132 54.7809 159.369 51.6885C153.239 40.938 147.384 30.0311 141.228 18.8268L141.228 18.8266ZM196.092 71.3673C191.931 63.9483 182.82 61.3581 175.49 65.5096C168.244 69.6128 165.627 79.0192 169.719 86.2467C173.805 93.4614 183.246 96.0943 190.45 92.0279C197.77 87.8957 200.256 78.7922 196.092 71.3673V71.3673Z" fill="white" fill-opacity="0.1"/>
</svg>
