<svg width="230" height="223" viewBox="0 0 230 223" fill="none" xmlns="http://www.w3.org/2000/svg">
<path d="M224.015 60.0441L186.787 47.127L191.696 32.9095C192.033 31.932 191.512 30.8555 190.537 30.5172L178.128 26.2115C177.153 25.8732 176.079 26.3961 175.741 27.3736L170.833 41.5912L114.106 21.9081L119.014 7.69049C119.352 6.71303 118.83 5.6365 117.855 5.2982L105.446 0.99252C104.471 0.654217 103.397 1.17716 103.06 2.15462L98.1511 16.3722L60.9239 3.45515C57.0018 2.09425 52.7363 4.1715 51.3788 8.10355L0.454249 155.611C-0.903228 159.543 1.1688 163.819 5.09095 165.18L168.182 221.769C172.104 223.13 176.369 221.053 177.727 217.121L228.651 69.6132C230.009 65.6812 227.937 61.405 224.015 60.0441ZM164.84 202.699L19.4765 152.261L48.6201 67.8439L193.984 118.282L164.84 202.699ZM53.8353 52.7377L64.2656 22.5254L92.6292 32.367L88.9479 43.0301C88.6105 44.0076 89.1321 45.0841 90.1071 45.4224L102.516 49.7281C103.491 50.0664 104.565 49.5435 104.902 48.566L108.584 37.9028L165.311 57.5859L161.63 68.2491C161.292 69.2266 161.814 70.3031 162.789 70.6414L175.198 74.9471C176.173 75.2854 177.247 74.7624 177.584 73.785L181.265 63.1218L209.629 72.9634L199.199 103.176L53.8353 52.7377Z" fill="#1A8396" fill-opacity="0.15"/>
</svg>
