<svg width="239" height="240" viewBox="0 0 239 240" fill="none" xmlns="http://www.w3.org/2000/svg">
<path d="M175.089 80.9037L204.732 12.723C205.365 11.2679 205.575 9.66426 205.338 8.09579C205.1 6.52733 204.425 5.05756 203.389 3.85496C202.353 2.65235 200.999 1.7656 199.482 1.29634C197.964 0.82709 196.345 0.794333 194.809 1.20182L7.15872 52.1267C4.99489 52.7139 3.15308 54.1353 2.03846 56.0782C0.923831 58.0211 0.627699 60.3263 1.21521 62.4867L47.7346 233.551C48.3221 235.711 49.7451 237.55 51.6906 238.662C53.6361 239.774 55.9447 240.07 58.1085 239.482C60.2723 238.895 62.1142 237.474 63.2288 235.531C64.3434 233.588 64.6395 231.283 64.052 229.122L52.976 188.393L232.468 139.682C233.999 139.257 235.379 138.411 236.45 137.239C237.521 136.067 238.24 134.618 238.525 133.057C238.809 131.496 238.647 129.887 238.057 128.414C237.468 126.941 236.474 125.664 235.191 124.729L175.089 80.9037ZM48.5456 172.101L19.7479 66.2044L182.31 22.0879L156.979 80.3515C156.172 82.104 156.008 84.0835 156.514 85.9445C157.02 87.8055 158.164 89.4297 159.748 90.5338L211.108 127.985L48.5456 172.101Z" fill="#B76200" fill-opacity="0.15"/>
</svg>
